<mxfile host="app.diagrams.net" agent="Mozilla/5.0 (Windows NT 10.0; Win64; x64) AppleWebKit/537.36 (KHTML, like Gecko) Chrome/134.0.0.0 Safari/537.36" version="26.1.0">
  <diagram name="Page-1" id="8ce9d11a-91a2-4d17-14d8-a56ed91bf033">
    <mxGraphModel dx="1506" dy="978" grid="1" gridSize="10" guides="1" tooltips="1" connect="1" arrows="1" fold="1" page="1" pageScale="1" pageWidth="1100" pageHeight="850" background="none" math="0" shadow="0">
      <root>
        <mxCell id="0" />
        <mxCell id="1" parent="0" />
        <mxCell id="RqmyEwVR8pUYJH0lh_0E-65" value="&lt;h1 style=&quot;margin-top: 0px;&quot;&gt;Sistema de Gestion De Tickets De Soporte Post-Venta&lt;/h1&gt;&lt;div&gt;Diagrama de flujo 0&lt;/div&gt;&lt;p&gt;&lt;br&gt;&lt;/p&gt;" style="text;html=1;whiteSpace=wrap;overflow=hidden;rounded=0;align=center;" parent="1" vertex="1">
          <mxGeometry x="10" width="250" height="130" as="geometry" />
        </mxCell>
        <mxCell id="AHQL6sOyWBSQoEr8yB4Y-11" value="" style="edgeStyle=orthogonalEdgeStyle;rounded=0;orthogonalLoop=1;jettySize=auto;html=1;" parent="1" source="AHQL6sOyWBSQoEr8yB4Y-1" target="AHQL6sOyWBSQoEr8yB4Y-10" edge="1">
          <mxGeometry relative="1" as="geometry" />
        </mxCell>
        <mxCell id="AHQL6sOyWBSQoEr8yB4Y-1" value="Gestion de Ticket" style="ellipse;whiteSpace=wrap;html=1;aspect=fixed;" parent="1" vertex="1">
          <mxGeometry x="910" y="120" width="80" height="80" as="geometry" />
        </mxCell>
        <mxCell id="AHQL6sOyWBSQoEr8yB4Y-297" style="edgeStyle=orthogonalEdgeStyle;rounded=0;orthogonalLoop=1;jettySize=auto;html=1;exitX=1;exitY=0.5;exitDx=0;exitDy=0;" parent="1" source="go86CYjt80q-ZD5tMoAA-1" target="AHQL6sOyWBSQoEr8yB4Y-115" edge="1">
          <mxGeometry relative="1" as="geometry">
            <mxPoint x="420" y="50" as="sourcePoint" />
          </mxGeometry>
        </mxCell>
        <mxCell id="AHQL6sOyWBSQoEr8yB4Y-299" value="Se comunica con" style="edgeLabel;html=1;align=center;verticalAlign=middle;resizable=0;points=[];" parent="AHQL6sOyWBSQoEr8yB4Y-297" vertex="1" connectable="0">
          <mxGeometry x="-0.2844" y="-3" relative="1" as="geometry">
            <mxPoint x="14" y="-13" as="offset" />
          </mxGeometry>
        </mxCell>
        <mxCell id="AHQL6sOyWBSQoEr8yB4Y-320" style="edgeStyle=orthogonalEdgeStyle;rounded=0;orthogonalLoop=1;jettySize=auto;html=1;exitX=0.5;exitY=1;exitDx=0;exitDy=0;entryX=0;entryY=0.5;entryDx=0;entryDy=0;" parent="1" source="AHQL6sOyWBSQoEr8yB4Y-10" target="AHQL6sOyWBSQoEr8yB4Y-32" edge="1">
          <mxGeometry relative="1" as="geometry" />
        </mxCell>
        <mxCell id="go86CYjt80q-ZD5tMoAA-96" value="" style="edgeStyle=orthogonalEdgeStyle;rounded=0;orthogonalLoop=1;jettySize=auto;html=1;" parent="1" source="AHQL6sOyWBSQoEr8yB4Y-10" target="AHQL6sOyWBSQoEr8yB4Y-37" edge="1">
          <mxGeometry relative="1" as="geometry" />
        </mxCell>
        <mxCell id="AHQL6sOyWBSQoEr8yB4Y-10" value="Clasificar Falla" style="whiteSpace=wrap;html=1;" parent="1" vertex="1">
          <mxGeometry x="720" y="150" width="120" height="40" as="geometry" />
        </mxCell>
        <mxCell id="AHQL6sOyWBSQoEr8yB4Y-318" value="" style="edgeStyle=orthogonalEdgeStyle;rounded=0;orthogonalLoop=1;jettySize=auto;html=1;" parent="1" source="AHQL6sOyWBSQoEr8yB4Y-29" target="AHQL6sOyWBSQoEr8yB4Y-1" edge="1">
          <mxGeometry relative="1" as="geometry" />
        </mxCell>
        <mxCell id="AHQL6sOyWBSQoEr8yB4Y-29" value="RIF,&lt;div&gt;descripcion falla,&lt;/div&gt;" style="shape=parallelogram;perimeter=parallelogramPerimeter;whiteSpace=wrap;html=1;fixedSize=1;size=-67;" parent="1" vertex="1">
          <mxGeometry x="890" y="40" width="120" height="45" as="geometry" />
        </mxCell>
        <mxCell id="AHQL6sOyWBSQoEr8yB4Y-296" style="edgeStyle=orthogonalEdgeStyle;rounded=0;orthogonalLoop=1;jettySize=auto;html=1;exitX=1;exitY=0.5;exitDx=0;exitDy=0;" parent="1" source="AHQL6sOyWBSQoEr8yB4Y-32" target="AHQL6sOyWBSQoEr8yB4Y-42" edge="1">
          <mxGeometry relative="1" as="geometry">
            <mxPoint x="1040" y="330" as="targetPoint" />
          </mxGeometry>
        </mxCell>
        <mxCell id="AHQL6sOyWBSQoEr8yB4Y-32" value="Primer Nivel" style="whiteSpace=wrap;html=1;" parent="1" vertex="1">
          <mxGeometry x="800" y="250" width="120" height="40" as="geometry" />
        </mxCell>
        <mxCell id="go86CYjt80q-ZD5tMoAA-97" style="edgeStyle=orthogonalEdgeStyle;rounded=0;orthogonalLoop=1;jettySize=auto;html=1;exitX=0.5;exitY=1;exitDx=0;exitDy=0;entryX=0.5;entryY=0;entryDx=0;entryDy=0;" parent="1" source="AHQL6sOyWBSQoEr8yB4Y-37" target="AHQL6sOyWBSQoEr8yB4Y-160" edge="1">
          <mxGeometry relative="1" as="geometry" />
        </mxCell>
        <mxCell id="AHQL6sOyWBSQoEr8yB4Y-37" value="Segundo Nivel" style="whiteSpace=wrap;html=1;" parent="1" vertex="1">
          <mxGeometry x="520" y="150" width="120" height="40" as="geometry" />
        </mxCell>
        <mxCell id="AHQL6sOyWBSQoEr8yB4Y-159" value="" style="edgeStyle=orthogonalEdgeStyle;rounded=0;orthogonalLoop=1;jettySize=auto;html=1;" parent="1" source="AHQL6sOyWBSQoEr8yB4Y-42" target="AHQL6sOyWBSQoEr8yB4Y-158" edge="1">
          <mxGeometry relative="1" as="geometry" />
        </mxCell>
        <mxCell id="AHQL6sOyWBSQoEr8yB4Y-42" value="Asesoramiento telefonico" style="whiteSpace=wrap;html=1;" parent="1" vertex="1">
          <mxGeometry x="965" y="250" width="120" height="40" as="geometry" />
        </mxCell>
        <mxCell id="AHQL6sOyWBSQoEr8yB4Y-316" value="" style="edgeStyle=orthogonalEdgeStyle;rounded=0;orthogonalLoop=1;jettySize=auto;html=1;" parent="1" source="AHQL6sOyWBSQoEr8yB4Y-115" target="AHQL6sOyWBSQoEr8yB4Y-29" edge="1">
          <mxGeometry relative="1" as="geometry" />
        </mxCell>
        <mxCell id="AHQL6sOyWBSQoEr8yB4Y-317" value="Solicita informacion al cliente" style="edgeLabel;html=1;align=center;verticalAlign=middle;resizable=0;points=[];" parent="AHQL6sOyWBSQoEr8yB4Y-316" vertex="1" connectable="0">
          <mxGeometry x="-0.3896" y="1" relative="1" as="geometry">
            <mxPoint x="32" y="1" as="offset" />
          </mxGeometry>
        </mxCell>
        <mxCell id="AHQL6sOyWBSQoEr8yB4Y-115" value="Operador" style="whiteSpace=wrap;html=1;" parent="1" vertex="1">
          <mxGeometry x="600" y="40" width="120" height="40" as="geometry" />
        </mxCell>
        <mxCell id="AHQL6sOyWBSQoEr8yB4Y-252" value="" style="edgeStyle=orthogonalEdgeStyle;rounded=0;orthogonalLoop=1;jettySize=auto;html=1;" parent="1" source="AHQL6sOyWBSQoEr8yB4Y-158" target="go86CYjt80q-ZD5tMoAA-3" edge="1">
          <mxGeometry relative="1" as="geometry">
            <mxPoint x="1010" y="450" as="targetPoint" />
          </mxGeometry>
        </mxCell>
        <mxCell id="AHQL6sOyWBSQoEr8yB4Y-158" value="Resuelve Falla" style="whiteSpace=wrap;html=1;" parent="1" vertex="1">
          <mxGeometry x="962.5" y="347.32" width="120" height="60" as="geometry" />
        </mxCell>
        <mxCell id="AHQL6sOyWBSQoEr8yB4Y-307" value="" style="edgeStyle=orthogonalEdgeStyle;rounded=0;orthogonalLoop=1;jettySize=auto;html=1;" parent="1" source="AHQL6sOyWBSQoEr8yB4Y-160" target="AHQL6sOyWBSQoEr8yB4Y-166" edge="1">
          <mxGeometry relative="1" as="geometry" />
        </mxCell>
        <mxCell id="AHQL6sOyWBSQoEr8yB4Y-312" value="NO" style="edgeLabel;html=1;align=center;verticalAlign=middle;resizable=0;points=[];" parent="AHQL6sOyWBSQoEr8yB4Y-307" vertex="1" connectable="0">
          <mxGeometry x="0.556" relative="1" as="geometry">
            <mxPoint x="-19" y="-10" as="offset" />
          </mxGeometry>
        </mxCell>
        <mxCell id="AHQL6sOyWBSQoEr8yB4Y-322" value="" style="edgeStyle=orthogonalEdgeStyle;rounded=0;orthogonalLoop=1;jettySize=auto;html=1;" parent="1" source="AHQL6sOyWBSQoEr8yB4Y-160" target="AHQL6sOyWBSQoEr8yB4Y-186" edge="1">
          <mxGeometry relative="1" as="geometry" />
        </mxCell>
        <mxCell id="AHQL6sOyWBSQoEr8yB4Y-323" value="SI" style="edgeLabel;html=1;align=center;verticalAlign=middle;resizable=0;points=[];" parent="AHQL6sOyWBSQoEr8yB4Y-322" vertex="1" connectable="0">
          <mxGeometry x="-0.2453" y="-1" relative="1" as="geometry">
            <mxPoint x="7" y="-11" as="offset" />
          </mxGeometry>
        </mxCell>
        <mxCell id="AHQL6sOyWBSQoEr8yB4Y-160" value="El POS tiene&lt;div&gt;Garantia?&lt;/div&gt;" style="rhombus;whiteSpace=wrap;html=1;" parent="1" vertex="1">
          <mxGeometry x="690" y="230" width="80" height="80" as="geometry" />
        </mxCell>
        <mxCell id="AHQL6sOyWBSQoEr8yB4Y-328" value="" style="edgeStyle=orthogonalEdgeStyle;rounded=0;orthogonalLoop=1;jettySize=auto;html=1;" parent="1" source="AHQL6sOyWBSQoEr8yB4Y-166" target="AHQL6sOyWBSQoEr8yB4Y-189" edge="1">
          <mxGeometry relative="1" as="geometry">
            <mxPoint x="713" y="480" as="targetPoint" />
          </mxGeometry>
        </mxCell>
        <mxCell id="AHQL6sOyWBSQoEr8yB4Y-329" value="NO" style="edgeLabel;html=1;align=center;verticalAlign=middle;resizable=0;points=[];" parent="AHQL6sOyWBSQoEr8yB4Y-328" vertex="1" connectable="0">
          <mxGeometry x="-0.0767" relative="1" as="geometry">
            <mxPoint x="-12" as="offset" />
          </mxGeometry>
        </mxCell>
        <mxCell id="go86CYjt80q-ZD5tMoAA-106" style="edgeStyle=orthogonalEdgeStyle;rounded=0;orthogonalLoop=1;jettySize=auto;html=1;exitX=0;exitY=0.5;exitDx=0;exitDy=0;entryX=0.5;entryY=0;entryDx=0;entryDy=0;" parent="1" source="AHQL6sOyWBSQoEr8yB4Y-166" target="AHQL6sOyWBSQoEr8yB4Y-183" edge="1">
          <mxGeometry relative="1" as="geometry">
            <Array as="points">
              <mxPoint x="670" y="450" />
              <mxPoint x="568" y="450" />
            </Array>
          </mxGeometry>
        </mxCell>
        <mxCell id="go86CYjt80q-ZD5tMoAA-107" value="SI" style="edgeLabel;html=1;align=center;verticalAlign=middle;resizable=0;points=[];" parent="go86CYjt80q-ZD5tMoAA-106" vertex="1" connectable="0">
          <mxGeometry x="-0.2947" relative="1" as="geometry">
            <mxPoint x="26" y="-15" as="offset" />
          </mxGeometry>
        </mxCell>
        <mxCell id="AHQL6sOyWBSQoEr8yB4Y-166" value="El POS&lt;div&gt;esta&amp;nbsp;&lt;/div&gt;&lt;div&gt;Exonerado?&lt;/div&gt;" style="rhombus;whiteSpace=wrap;html=1;" parent="1" vertex="1">
          <mxGeometry x="670" y="359.13" width="85" height="92.75" as="geometry" />
        </mxCell>
        <mxCell id="go86CYjt80q-ZD5tMoAA-87" style="edgeStyle=orthogonalEdgeStyle;rounded=0;orthogonalLoop=1;jettySize=auto;html=1;exitX=0;exitY=0;exitDx=0;exitDy=0;entryX=0;entryY=0.5;entryDx=0;entryDy=0;" parent="1" source="AHQL6sOyWBSQoEr8yB4Y-189" target="AHQL6sOyWBSQoEr8yB4Y-195" edge="1">
          <mxGeometry relative="1" as="geometry">
            <mxPoint x="762.5" y="525" as="sourcePoint" />
          </mxGeometry>
        </mxCell>
        <mxCell id="go86CYjt80q-ZD5tMoAA-109" value="NO" style="edgeLabel;html=1;align=center;verticalAlign=middle;resizable=0;points=[];" parent="go86CYjt80q-ZD5tMoAA-87" vertex="1" connectable="0">
          <mxGeometry x="-0.4396" y="5" relative="1" as="geometry">
            <mxPoint x="-1" y="-106" as="offset" />
          </mxGeometry>
        </mxCell>
        <mxCell id="go86CYjt80q-ZD5tMoAA-148" style="edgeStyle=orthogonalEdgeStyle;rounded=0;orthogonalLoop=1;jettySize=auto;html=1;exitX=1;exitY=0.5;exitDx=0;exitDy=0;" parent="1" source="AHQL6sOyWBSQoEr8yB4Y-183" target="4JDT5SiGJjV2Vg8K56oX-1" edge="1">
          <mxGeometry relative="1" as="geometry">
            <mxPoint x="647.5" y="632.49" as="targetPoint" />
          </mxGeometry>
        </mxCell>
        <mxCell id="AHQL6sOyWBSQoEr8yB4Y-183" value="Carga PDF de exoneracion" style="whiteSpace=wrap;html=1;" parent="1" vertex="1">
          <mxGeometry x="520" y="502" width="96.5" height="45.75" as="geometry" />
        </mxCell>
        <mxCell id="go86CYjt80q-ZD5tMoAA-35" style="edgeStyle=orthogonalEdgeStyle;rounded=0;orthogonalLoop=1;jettySize=auto;html=1;exitX=0.5;exitY=1;exitDx=0;exitDy=0;entryX=0.5;entryY=0;entryDx=0;entryDy=0;" parent="1" source="AHQL6sOyWBSQoEr8yB4Y-186" target="go86CYjt80q-ZD5tMoAA-91" edge="1">
          <mxGeometry relative="1" as="geometry">
            <mxPoint x="547.5" y="350" as="targetPoint" />
          </mxGeometry>
        </mxCell>
        <mxCell id="go86CYjt80q-ZD5tMoAA-86" value="SI" style="edgeLabel;html=1;align=center;verticalAlign=middle;resizable=0;points=[];" parent="go86CYjt80q-ZD5tMoAA-35" vertex="1" connectable="0">
          <mxGeometry x="-0.1288" y="-3" relative="1" as="geometry">
            <mxPoint x="-21" y="1" as="offset" />
          </mxGeometry>
        </mxCell>
        <mxCell id="go86CYjt80q-ZD5tMoAA-93" value="" style="edgeStyle=orthogonalEdgeStyle;rounded=0;orthogonalLoop=1;jettySize=auto;html=1;" parent="1" source="AHQL6sOyWBSQoEr8yB4Y-186" target="go86CYjt80q-ZD5tMoAA-90" edge="1">
          <mxGeometry relative="1" as="geometry" />
        </mxCell>
        <mxCell id="go86CYjt80q-ZD5tMoAA-94" value="NO" style="edgeLabel;html=1;align=center;verticalAlign=middle;resizable=0;points=[];" parent="go86CYjt80q-ZD5tMoAA-93" vertex="1" connectable="0">
          <mxGeometry x="-0.307" y="2" relative="1" as="geometry">
            <mxPoint x="15" y="-8" as="offset" />
          </mxGeometry>
        </mxCell>
        <mxCell id="AHQL6sOyWBSQoEr8yB4Y-186" value="Por reingreso?" style="rhombus;whiteSpace=wrap;html=1;" parent="1" vertex="1">
          <mxGeometry x="585" y="230" width="80" height="80" as="geometry" />
        </mxCell>
        <mxCell id="go86CYjt80q-ZD5tMoAA-149" style="edgeStyle=orthogonalEdgeStyle;rounded=0;orthogonalLoop=1;jettySize=auto;html=1;exitX=1;exitY=0;exitDx=0;exitDy=0;entryX=0;entryY=0.5;entryDx=0;entryDy=0;" parent="1" source="AHQL6sOyWBSQoEr8yB4Y-189" target="AHQL6sOyWBSQoEr8yB4Y-211" edge="1">
          <mxGeometry relative="1" as="geometry" />
        </mxCell>
        <mxCell id="go86CYjt80q-ZD5tMoAA-150" value="SI" style="edgeLabel;html=1;align=center;verticalAlign=middle;resizable=0;points=[];" parent="go86CYjt80q-ZD5tMoAA-149" vertex="1" connectable="0">
          <mxGeometry x="0.3009" y="-1" relative="1" as="geometry">
            <mxPoint as="offset" />
          </mxGeometry>
        </mxCell>
        <mxCell id="AHQL6sOyWBSQoEr8yB4Y-189" value="El cliente Realizo Pago de anticipo?" style="rhombus;whiteSpace=wrap;html=1;direction=south;" parent="1" vertex="1">
          <mxGeometry x="675" y="501.99999999999994" width="80" height="80" as="geometry" />
        </mxCell>
        <mxCell id="AHQL6sOyWBSQoEr8yB4Y-200" value="" style="edgeStyle=orthogonalEdgeStyle;rounded=0;orthogonalLoop=1;jettySize=auto;html=1;entryX=0.5;entryY=0;entryDx=0;entryDy=0;" parent="1" source="AHQL6sOyWBSQoEr8yB4Y-195" target="AHQL6sOyWBSQoEr8yB4Y-199" edge="1">
          <mxGeometry relative="1" as="geometry">
            <mxPoint x="710" y="723.9999999999998" as="targetPoint" />
          </mxGeometry>
        </mxCell>
        <mxCell id="AHQL6sOyWBSQoEr8yB4Y-195" value="En espera. Tiene un tiempo estimado de 72hr" style="rounded=0;whiteSpace=wrap;html=1;" parent="1" vertex="1">
          <mxGeometry x="810" y="329.13" width="120" height="60" as="geometry" />
        </mxCell>
        <mxCell id="AHQL6sOyWBSQoEr8yB4Y-357" style="edgeStyle=orthogonalEdgeStyle;rounded=0;orthogonalLoop=1;jettySize=auto;html=1;exitX=0.5;exitY=1;exitDx=0;exitDy=0;" parent="1" source="AHQL6sOyWBSQoEr8yB4Y-199" target="AHQL6sOyWBSQoEr8yB4Y-211" edge="1">
          <mxGeometry relative="1" as="geometry" />
        </mxCell>
        <mxCell id="AHQL6sOyWBSQoEr8yB4Y-392" value="SI" style="edgeLabel;html=1;align=center;verticalAlign=middle;resizable=0;points=[];" parent="AHQL6sOyWBSQoEr8yB4Y-357" vertex="1" connectable="0">
          <mxGeometry x="0.0481" y="1" relative="1" as="geometry">
            <mxPoint as="offset" />
          </mxGeometry>
        </mxCell>
        <mxCell id="m4z2HGOaog7bQGD8mvmy-1" style="edgeStyle=orthogonalEdgeStyle;rounded=0;orthogonalLoop=1;jettySize=auto;html=1;exitX=1;exitY=1;exitDx=0;exitDy=0;entryX=0;entryY=0.5;entryDx=0;entryDy=0;" edge="1" parent="1" source="AHQL6sOyWBSQoEr8yB4Y-199" target="go86CYjt80q-ZD5tMoAA-176">
          <mxGeometry relative="1" as="geometry">
            <Array as="points">
              <mxPoint x="930" y="525" />
              <mxPoint x="930" y="631" />
            </Array>
          </mxGeometry>
        </mxCell>
        <mxCell id="m4z2HGOaog7bQGD8mvmy-2" value="NO" style="edgeLabel;html=1;align=center;verticalAlign=middle;resizable=0;points=[];" vertex="1" connectable="0" parent="m4z2HGOaog7bQGD8mvmy-1">
          <mxGeometry x="0.4887" y="-3" relative="1" as="geometry">
            <mxPoint as="offset" />
          </mxGeometry>
        </mxCell>
        <mxCell id="AHQL6sOyWBSQoEr8yB4Y-199" value="Cliente&amp;nbsp;&lt;div&gt;realizo &lt;br&gt;pago de&amp;nbsp;&lt;/div&gt;&lt;div&gt;anticipo?&lt;/div&gt;" style="rhombus;whiteSpace=wrap;html=1;rounded=0;" parent="1" vertex="1">
          <mxGeometry x="812.5" y="460" width="115" height="86.5" as="geometry" />
        </mxCell>
        <mxCell id="AHQL6sOyWBSQoEr8yB4Y-437" value="" style="edgeStyle=orthogonalEdgeStyle;rounded=0;orthogonalLoop=1;jettySize=auto;html=1;" parent="1" source="AHQL6sOyWBSQoEr8yB4Y-211" target="AHQL6sOyWBSQoEr8yB4Y-436" edge="1">
          <mxGeometry relative="1" as="geometry" />
        </mxCell>
        <mxCell id="AHQL6sOyWBSQoEr8yB4Y-211" value="Verificar nota profit" style="rounded=0;whiteSpace=wrap;html=1;" parent="1" vertex="1">
          <mxGeometry x="810" y="690" width="120" height="37.5" as="geometry" />
        </mxCell>
        <mxCell id="AHQL6sOyWBSQoEr8yB4Y-401" value="" style="edgeStyle=orthogonalEdgeStyle;rounded=0;orthogonalLoop=1;jettySize=auto;html=1;" parent="1" source="AHQL6sOyWBSQoEr8yB4Y-225" target="AHQL6sOyWBSQoEr8yB4Y-232" edge="1">
          <mxGeometry relative="1" as="geometry" />
        </mxCell>
        <mxCell id="AHQL6sOyWBSQoEr8yB4Y-225" value="Envia Equipo al Rosal" style="whiteSpace=wrap;html=1;rounded=0;" parent="1" vertex="1">
          <mxGeometry x="410" y="777.5" width="120" height="37.87" as="geometry" />
        </mxCell>
        <mxCell id="AHQL6sOyWBSQoEr8yB4Y-402" value="" style="edgeStyle=orthogonalEdgeStyle;rounded=0;orthogonalLoop=1;jettySize=auto;html=1;" parent="1" source="AHQL6sOyWBSQoEr8yB4Y-232" target="AHQL6sOyWBSQoEr8yB4Y-236" edge="1">
          <mxGeometry relative="1" as="geometry" />
        </mxCell>
        <mxCell id="AHQL6sOyWBSQoEr8yB4Y-232" value="Verificar Falla del POS" style="whiteSpace=wrap;html=1;rounded=0;" parent="1" vertex="1">
          <mxGeometry x="220" y="777.5" width="120" height="37.87" as="geometry" />
        </mxCell>
        <mxCell id="go86CYjt80q-ZD5tMoAA-124" value="" style="edgeStyle=orthogonalEdgeStyle;rounded=0;orthogonalLoop=1;jettySize=auto;html=1;" parent="1" source="AHQL6sOyWBSQoEr8yB4Y-236" target="go86CYjt80q-ZD5tMoAA-123" edge="1">
          <mxGeometry relative="1" as="geometry" />
        </mxCell>
        <mxCell id="go86CYjt80q-ZD5tMoAA-144" value="SI" style="edgeLabel;html=1;align=center;verticalAlign=middle;resizable=0;points=[];" parent="go86CYjt80q-ZD5tMoAA-124" vertex="1" connectable="0">
          <mxGeometry x="-0.2509" y="-1" relative="1" as="geometry">
            <mxPoint as="offset" />
          </mxGeometry>
        </mxCell>
        <mxCell id="go86CYjt80q-ZD5tMoAA-163" style="edgeStyle=orthogonalEdgeStyle;rounded=0;orthogonalLoop=1;jettySize=auto;html=1;exitX=0;exitY=0.5;exitDx=0;exitDy=0;entryX=0.5;entryY=1;entryDx=0;entryDy=0;" parent="1" source="AHQL6sOyWBSQoEr8yB4Y-236" target="go86CYjt80q-ZD5tMoAA-160" edge="1">
          <mxGeometry relative="1" as="geometry" />
        </mxCell>
        <mxCell id="go86CYjt80q-ZD5tMoAA-165" value="NO" style="edgeLabel;html=1;align=center;verticalAlign=middle;resizable=0;points=[];" parent="go86CYjt80q-ZD5tMoAA-163" vertex="1" connectable="0">
          <mxGeometry x="-0.0994" y="2" relative="1" as="geometry">
            <mxPoint x="2" y="-16" as="offset" />
          </mxGeometry>
        </mxCell>
        <mxCell id="AHQL6sOyWBSQoEr8yB4Y-236" value="El POS&amp;nbsp;&lt;div&gt;&lt;span style=&quot;background-color: transparent; color: light-dark(rgb(0, 0, 0), rgb(255, 255, 255));&quot;&gt;tiene la falla descrita por el cliente?&lt;/span&gt;&lt;/div&gt;" style="rhombus;whiteSpace=wrap;html=1;rounded=0;" parent="1" vertex="1">
          <mxGeometry x="76.5" y="636.01" width="115" height="109.99" as="geometry" />
        </mxCell>
        <mxCell id="go86CYjt80q-ZD5tMoAA-177" value="" style="edgeStyle=orthogonalEdgeStyle;rounded=0;orthogonalLoop=1;jettySize=auto;html=1;" parent="1" source="AHQL6sOyWBSQoEr8yB4Y-436" target="go86CYjt80q-ZD5tMoAA-176" edge="1">
          <mxGeometry relative="1" as="geometry" />
        </mxCell>
        <mxCell id="go86CYjt80q-ZD5tMoAA-179" value="NO" style="edgeLabel;html=1;align=center;verticalAlign=middle;resizable=0;points=[];" parent="go86CYjt80q-ZD5tMoAA-177" vertex="1" connectable="0">
          <mxGeometry x="-0.088" y="-3" relative="1" as="geometry">
            <mxPoint x="-3" y="-9" as="offset" />
          </mxGeometry>
        </mxCell>
        <mxCell id="4JDT5SiGJjV2Vg8K56oX-9" style="edgeStyle=orthogonalEdgeStyle;rounded=0;orthogonalLoop=1;jettySize=auto;html=1;exitX=0.5;exitY=1;exitDx=0;exitDy=0;entryX=0.5;entryY=1;entryDx=0;entryDy=0;" parent="1" source="AHQL6sOyWBSQoEr8yB4Y-436" target="4JDT5SiGJjV2Vg8K56oX-1" edge="1">
          <mxGeometry relative="1" as="geometry" />
        </mxCell>
        <mxCell id="4JDT5SiGJjV2Vg8K56oX-13" value="SI" style="edgeLabel;html=1;align=center;verticalAlign=middle;resizable=0;points=[];" parent="4JDT5SiGJjV2Vg8K56oX-9" vertex="1" connectable="0">
          <mxGeometry x="-0.8169" y="1" relative="1" as="geometry">
            <mxPoint as="offset" />
          </mxGeometry>
        </mxCell>
        <mxCell id="AHQL6sOyWBSQoEr8yB4Y-436" value="Pago Verificado?" style="rhombus;whiteSpace=wrap;html=1;rounded=0;" parent="1" vertex="1">
          <mxGeometry x="980" y="692.5" width="90" height="85" as="geometry" />
        </mxCell>
        <mxCell id="go86CYjt80q-ZD5tMoAA-1" value="&lt;font style=&quot;font-size: 24px;&quot;&gt;Cliente&lt;/font&gt;" style="rounded=1;whiteSpace=wrap;html=1;strokeColor=none;" parent="1" vertex="1">
          <mxGeometry x="270" y="20" width="130" height="80" as="geometry" />
        </mxCell>
        <mxCell id="go86CYjt80q-ZD5tMoAA-3" value="&lt;font style=&quot;font-size: 24px;&quot;&gt;Cerrar Ticket&lt;/font&gt;" style="rounded=1;whiteSpace=wrap;html=1;strokeColor=none;" parent="1" vertex="1">
          <mxGeometry x="945" y="462.31" width="155" height="81.88" as="geometry" />
        </mxCell>
        <mxCell id="go86CYjt80q-ZD5tMoAA-229" style="edgeStyle=orthogonalEdgeStyle;rounded=0;orthogonalLoop=1;jettySize=auto;html=1;exitX=1;exitY=0.5;exitDx=0;exitDy=0;entryX=0;entryY=0.75;entryDx=0;entryDy=0;" parent="1" source="go86CYjt80q-ZD5tMoAA-4" target="go86CYjt80q-ZD5tMoAA-224" edge="1">
          <mxGeometry relative="1" as="geometry" />
        </mxCell>
        <mxCell id="go86CYjt80q-ZD5tMoAA-4" value="POS Entregado a Cliente" style="rounded=1;whiteSpace=wrap;html=1;" parent="1" vertex="1">
          <mxGeometry y="140" width="110" height="50" as="geometry" />
        </mxCell>
        <mxCell id="go86CYjt80q-ZD5tMoAA-227" style="edgeStyle=orthogonalEdgeStyle;rounded=0;orthogonalLoop=1;jettySize=auto;html=1;exitX=0.5;exitY=0;exitDx=0;exitDy=0;" parent="1" source="go86CYjt80q-ZD5tMoAA-15" target="go86CYjt80q-ZD5tMoAA-4" edge="1">
          <mxGeometry relative="1" as="geometry" />
        </mxCell>
        <mxCell id="go86CYjt80q-ZD5tMoAA-15" value="POS Sin falla" style="whiteSpace=wrap;html=1;rounded=0;" parent="1" vertex="1">
          <mxGeometry x="10" y="240" width="90" height="50" as="geometry" />
        </mxCell>
        <mxCell id="4JDT5SiGJjV2Vg8K56oX-15" style="edgeStyle=orthogonalEdgeStyle;rounded=0;orthogonalLoop=1;jettySize=auto;html=1;exitX=0;exitY=0.5;exitDx=0;exitDy=0;entryX=1;entryY=0.5;entryDx=0;entryDy=0;" parent="1" source="go86CYjt80q-ZD5tMoAA-19" target="go86CYjt80q-ZD5tMoAA-194" edge="1">
          <mxGeometry relative="1" as="geometry" />
        </mxCell>
        <mxCell id="4JDT5SiGJjV2Vg8K56oX-31" value="NO" style="edgeLabel;html=1;align=center;verticalAlign=middle;resizable=0;points=[];" parent="4JDT5SiGJjV2Vg8K56oX-15" vertex="1" connectable="0">
          <mxGeometry x="-0.0184" y="-1" relative="1" as="geometry">
            <mxPoint x="4" y="1" as="offset" />
          </mxGeometry>
        </mxCell>
        <mxCell id="4JDT5SiGJjV2Vg8K56oX-17" style="edgeStyle=orthogonalEdgeStyle;rounded=0;orthogonalLoop=1;jettySize=auto;html=1;exitX=0.5;exitY=0;exitDx=0;exitDy=0;entryX=0.5;entryY=1;entryDx=0;entryDy=0;" parent="1" source="go86CYjt80q-ZD5tMoAA-19" target="4JDT5SiGJjV2Vg8K56oX-16" edge="1">
          <mxGeometry relative="1" as="geometry" />
        </mxCell>
        <mxCell id="4JDT5SiGJjV2Vg8K56oX-18" value="SI" style="edgeLabel;html=1;align=center;verticalAlign=middle;resizable=0;points=[];" parent="4JDT5SiGJjV2Vg8K56oX-17" vertex="1" connectable="0">
          <mxGeometry x="-0.0422" y="-3" relative="1" as="geometry">
            <mxPoint as="offset" />
          </mxGeometry>
        </mxCell>
        <mxCell id="go86CYjt80q-ZD5tMoAA-19" value="Tiene Reparacion?" style="rhombus;whiteSpace=wrap;html=1;rounded=0;" parent="1" vertex="1">
          <mxGeometry x="377.5" y="554.06" width="85" height="91.88" as="geometry" />
        </mxCell>
        <mxCell id="4JDT5SiGJjV2Vg8K56oX-14" style="edgeStyle=orthogonalEdgeStyle;rounded=0;orthogonalLoop=1;jettySize=auto;html=1;exitX=0.25;exitY=1;exitDx=0;exitDy=0;entryX=0;entryY=0;entryDx=0;entryDy=0;" parent="1" source="go86CYjt80q-ZD5tMoAA-90" target="4JDT5SiGJjV2Vg8K56oX-1" edge="1">
          <mxGeometry relative="1" as="geometry">
            <Array as="points">
              <mxPoint x="500" y="290" />
              <mxPoint x="500" y="710" />
            </Array>
          </mxGeometry>
        </mxCell>
        <mxCell id="go86CYjt80q-ZD5tMoAA-90" value="Aplica garantia por instalacion" style="rounded=0;whiteSpace=wrap;html=1;" parent="1" vertex="1">
          <mxGeometry x="490" y="250" width="73" height="40" as="geometry" />
        </mxCell>
        <mxCell id="go86CYjt80q-ZD5tMoAA-91" value="Aplica Garantia por reingreso" style="rounded=0;whiteSpace=wrap;html=1;" parent="1" vertex="1">
          <mxGeometry x="520" y="383.01" width="90" height="45" as="geometry" />
        </mxCell>
        <mxCell id="go86CYjt80q-ZD5tMoAA-188" value="" style="edgeStyle=orthogonalEdgeStyle;rounded=0;orthogonalLoop=1;jettySize=auto;html=1;" parent="1" source="go86CYjt80q-ZD5tMoAA-123" target="go86CYjt80q-ZD5tMoAA-19" edge="1">
          <mxGeometry relative="1" as="geometry" />
        </mxCell>
        <mxCell id="go86CYjt80q-ZD5tMoAA-123" value="Envia equipo al taller" style="whiteSpace=wrap;html=1;rounded=0;" parent="1" vertex="1">
          <mxGeometry x="253.75" y="665.5" width="120" height="51.01" as="geometry" />
        </mxCell>
        <mxCell id="go86CYjt80q-ZD5tMoAA-238" style="edgeStyle=orthogonalEdgeStyle;rounded=0;orthogonalLoop=1;jettySize=auto;html=1;exitX=0.5;exitY=0;exitDx=0;exitDy=0;" parent="1" source="go86CYjt80q-ZD5tMoAA-135" target="go86CYjt80q-ZD5tMoAA-138" edge="1">
          <mxGeometry relative="1" as="geometry" />
        </mxCell>
        <mxCell id="go86CYjt80q-ZD5tMoAA-135" value="Se repara" style="whiteSpace=wrap;html=1;rounded=0;" parent="1" vertex="1">
          <mxGeometry x="377.5" y="200" width="90" height="40" as="geometry" />
        </mxCell>
        <mxCell id="go86CYjt80q-ZD5tMoAA-228" style="edgeStyle=orthogonalEdgeStyle;rounded=0;orthogonalLoop=1;jettySize=auto;html=1;exitX=0;exitY=0.5;exitDx=0;exitDy=0;entryX=0.5;entryY=0;entryDx=0;entryDy=0;" parent="1" source="go86CYjt80q-ZD5tMoAA-138" target="go86CYjt80q-ZD5tMoAA-224" edge="1">
          <mxGeometry relative="1" as="geometry" />
        </mxCell>
        <mxCell id="go86CYjt80q-ZD5tMoAA-138" value="POS Entregado a Cliente" style="whiteSpace=wrap;html=1;rounded=0;" parent="1" vertex="1">
          <mxGeometry x="362.5" y="120" width="120" height="30" as="geometry" />
        </mxCell>
        <mxCell id="go86CYjt80q-ZD5tMoAA-164" style="edgeStyle=orthogonalEdgeStyle;rounded=0;orthogonalLoop=1;jettySize=auto;html=1;exitX=0.5;exitY=0;exitDx=0;exitDy=0;entryX=0.5;entryY=1;entryDx=0;entryDy=0;" parent="1" source="go86CYjt80q-ZD5tMoAA-160" target="go86CYjt80q-ZD5tMoAA-15" edge="1">
          <mxGeometry relative="1" as="geometry" />
        </mxCell>
        <mxCell id="go86CYjt80q-ZD5tMoAA-170" value="NO" style="edgeLabel;html=1;align=center;verticalAlign=middle;resizable=0;points=[];" parent="go86CYjt80q-ZD5tMoAA-164" vertex="1" connectable="0">
          <mxGeometry x="-0.041" y="-3" relative="1" as="geometry">
            <mxPoint as="offset" />
          </mxGeometry>
        </mxCell>
        <mxCell id="4JDT5SiGJjV2Vg8K56oX-30" style="edgeStyle=orthogonalEdgeStyle;rounded=0;orthogonalLoop=1;jettySize=auto;html=1;exitX=1;exitY=0.5;exitDx=0;exitDy=0;entryX=0;entryY=0.25;entryDx=0;entryDy=0;" parent="1" source="go86CYjt80q-ZD5tMoAA-160" target="go86CYjt80q-ZD5tMoAA-123" edge="1">
          <mxGeometry relative="1" as="geometry">
            <Array as="points">
              <mxPoint x="190" y="387" />
              <mxPoint x="190" y="676" />
            </Array>
          </mxGeometry>
        </mxCell>
        <mxCell id="4JDT5SiGJjV2Vg8K56oX-32" value="SI" style="edgeLabel;html=1;align=center;verticalAlign=middle;resizable=0;points=[];" parent="4JDT5SiGJjV2Vg8K56oX-30" vertex="1" connectable="0">
          <mxGeometry x="-0.8631" y="-6" relative="1" as="geometry">
            <mxPoint as="offset" />
          </mxGeometry>
        </mxCell>
        <mxCell id="go86CYjt80q-ZD5tMoAA-160" value="Tiene Otra falla que no sea la que el cliente menciono?" style="rhombus;whiteSpace=wrap;html=1;" parent="1" vertex="1">
          <mxGeometry y="332.75" width="108.75" height="109.13" as="geometry" />
        </mxCell>
        <mxCell id="go86CYjt80q-ZD5tMoAA-216" style="edgeStyle=orthogonalEdgeStyle;rounded=0;orthogonalLoop=1;jettySize=auto;html=1;exitX=0.5;exitY=0;exitDx=0;exitDy=0;" parent="1" source="go86CYjt80q-ZD5tMoAA-176" target="go86CYjt80q-ZD5tMoAA-3" edge="1">
          <mxGeometry relative="1" as="geometry" />
        </mxCell>
        <mxCell id="go86CYjt80q-ZD5tMoAA-176" value="Pendiente por Gestion Comercial" style="rounded=1;whiteSpace=wrap;html=1;" parent="1" vertex="1">
          <mxGeometry x="962.5" y="600.6" width="122.5" height="50" as="geometry" />
        </mxCell>
        <mxCell id="4JDT5SiGJjV2Vg8K56oX-28" value="" style="edgeStyle=orthogonalEdgeStyle;rounded=0;orthogonalLoop=1;jettySize=auto;html=1;" parent="1" source="go86CYjt80q-ZD5tMoAA-190" target="go86CYjt80q-ZD5tMoAA-220" edge="1">
          <mxGeometry relative="1" as="geometry" />
        </mxCell>
        <mxCell id="go86CYjt80q-ZD5tMoAA-190" value="Pendiente por Gestion Comercial" style="rounded=1;whiteSpace=wrap;html=1;" parent="1" vertex="1">
          <mxGeometry x="223.49" y="328.88" width="110" height="54.13" as="geometry" />
        </mxCell>
        <mxCell id="4JDT5SiGJjV2Vg8K56oX-29" value="" style="edgeStyle=orthogonalEdgeStyle;rounded=0;orthogonalLoop=1;jettySize=auto;html=1;" parent="1" source="go86CYjt80q-ZD5tMoAA-194" target="go86CYjt80q-ZD5tMoAA-220" edge="1">
          <mxGeometry relative="1" as="geometry" />
        </mxCell>
        <mxCell id="go86CYjt80q-ZD5tMoAA-194" value="Pendiente por sustitucion" style="rounded=1;whiteSpace=wrap;html=1;" parent="1" vertex="1">
          <mxGeometry x="226.49" y="554.0599999999998" width="107" height="46.54" as="geometry" />
        </mxCell>
        <mxCell id="go86CYjt80q-ZD5tMoAA-220" value="&lt;font style=&quot;font-size: 24px;&quot;&gt;Cerrar Ticket&lt;/font&gt;" style="rounded=1;whiteSpace=wrap;html=1;strokeColor=none;" parent="1" vertex="1">
          <mxGeometry x="206.87" y="428.01" width="146.25" height="81.88" as="geometry" />
        </mxCell>
        <mxCell id="go86CYjt80q-ZD5tMoAA-224" value="&lt;font style=&quot;font-size: 24px;&quot;&gt;Cerrar Ticket&lt;/font&gt;" style="rounded=1;whiteSpace=wrap;html=1;strokeColor=none;" parent="1" vertex="1">
          <mxGeometry x="160" y="170" width="160" height="90" as="geometry" />
        </mxCell>
        <mxCell id="go86CYjt80q-ZD5tMoAA-225" style="edgeStyle=orthogonalEdgeStyle;rounded=0;orthogonalLoop=1;jettySize=auto;html=1;exitX=0.5;exitY=1;exitDx=0;exitDy=0;" parent="1" source="go86CYjt80q-ZD5tMoAA-4" target="go86CYjt80q-ZD5tMoAA-4" edge="1">
          <mxGeometry relative="1" as="geometry" />
        </mxCell>
        <mxCell id="4JDT5SiGJjV2Vg8K56oX-27" style="edgeStyle=orthogonalEdgeStyle;rounded=0;orthogonalLoop=1;jettySize=auto;html=1;exitX=0.5;exitY=0;exitDx=0;exitDy=0;entryX=0.5;entryY=1;entryDx=0;entryDy=0;" parent="1" source="go86CYjt80q-ZD5tMoAA-230" target="go86CYjt80q-ZD5tMoAA-231" edge="1">
          <mxGeometry relative="1" as="geometry" />
        </mxCell>
        <mxCell id="go86CYjt80q-ZD5tMoAA-230" value="Informar al Cliente del Presupuesto" style="rounded=0;whiteSpace=wrap;html=1;" parent="1" vertex="1">
          <mxGeometry x="377.5" y="367.32" width="90" height="40" as="geometry" />
        </mxCell>
        <mxCell id="go86CYjt80q-ZD5tMoAA-234" value="" style="edgeStyle=orthogonalEdgeStyle;rounded=0;orthogonalLoop=1;jettySize=auto;html=1;" parent="1" source="go86CYjt80q-ZD5tMoAA-231" target="go86CYjt80q-ZD5tMoAA-190" edge="1">
          <mxGeometry relative="1" as="geometry" />
        </mxCell>
        <mxCell id="go86CYjt80q-ZD5tMoAA-235" value="NO" style="edgeLabel;html=1;align=center;verticalAlign=middle;resizable=0;points=[];" parent="go86CYjt80q-ZD5tMoAA-234" vertex="1" connectable="0">
          <mxGeometry x="-0.1006" relative="1" as="geometry">
            <mxPoint as="offset" />
          </mxGeometry>
        </mxCell>
        <mxCell id="go86CYjt80q-ZD5tMoAA-236" value="" style="edgeStyle=orthogonalEdgeStyle;rounded=0;orthogonalLoop=1;jettySize=auto;html=1;" parent="1" source="go86CYjt80q-ZD5tMoAA-231" target="go86CYjt80q-ZD5tMoAA-135" edge="1">
          <mxGeometry relative="1" as="geometry" />
        </mxCell>
        <mxCell id="go86CYjt80q-ZD5tMoAA-237" value="SI" style="edgeLabel;html=1;align=center;verticalAlign=middle;resizable=0;points=[];" parent="go86CYjt80q-ZD5tMoAA-236" vertex="1" connectable="0">
          <mxGeometry x="-0.0899" y="-1" relative="1" as="geometry">
            <mxPoint y="-1" as="offset" />
          </mxGeometry>
        </mxCell>
        <mxCell id="go86CYjt80q-ZD5tMoAA-231" value="Cliente cancelo reparacion?&amp;nbsp;" style="rhombus;whiteSpace=wrap;html=1;rounded=0;" parent="1" vertex="1">
          <mxGeometry x="373.75" y="264.13" width="97.5" height="80" as="geometry" />
        </mxCell>
        <mxCell id="4JDT5SiGJjV2Vg8K56oX-6" style="edgeStyle=orthogonalEdgeStyle;rounded=0;orthogonalLoop=1;jettySize=auto;html=1;entryX=1;entryY=0.5;entryDx=0;entryDy=0;" parent="1" source="4JDT5SiGJjV2Vg8K56oX-1" target="AHQL6sOyWBSQoEr8yB4Y-225" edge="1">
          <mxGeometry relative="1" as="geometry" />
        </mxCell>
        <mxCell id="4JDT5SiGJjV2Vg8K56oX-1" value="Verificar status domiciliacion" style="rounded=0;whiteSpace=wrap;html=1;" parent="1" vertex="1">
          <mxGeometry x="600" y="710" width="110" height="36" as="geometry" />
        </mxCell>
        <mxCell id="4JDT5SiGJjV2Vg8K56oX-7" style="edgeStyle=orthogonalEdgeStyle;rounded=0;orthogonalLoop=1;jettySize=auto;html=1;exitX=0;exitY=0.5;exitDx=0;exitDy=0;entryX=0.36;entryY=-0.004;entryDx=0;entryDy=0;entryPerimeter=0;" parent="1" source="go86CYjt80q-ZD5tMoAA-91" target="4JDT5SiGJjV2Vg8K56oX-1" edge="1">
          <mxGeometry relative="1" as="geometry">
            <Array as="points">
              <mxPoint x="510" y="406" />
              <mxPoint x="510" y="569" />
              <mxPoint x="640" y="569" />
            </Array>
          </mxGeometry>
        </mxCell>
        <mxCell id="4JDT5SiGJjV2Vg8K56oX-19" style="edgeStyle=orthogonalEdgeStyle;rounded=0;orthogonalLoop=1;jettySize=auto;html=1;exitX=0.5;exitY=0;exitDx=0;exitDy=0;entryX=0.5;entryY=1;entryDx=0;entryDy=0;" parent="1" source="4JDT5SiGJjV2Vg8K56oX-16" target="go86CYjt80q-ZD5tMoAA-230" edge="1">
          <mxGeometry relative="1" as="geometry" />
        </mxCell>
        <mxCell id="4JDT5SiGJjV2Vg8K56oX-20" value="SI" style="edgeLabel;html=1;align=center;verticalAlign=middle;resizable=0;points=[];" parent="4JDT5SiGJjV2Vg8K56oX-19" vertex="1" connectable="0">
          <mxGeometry x="0.0251" y="-3" relative="1" as="geometry">
            <mxPoint as="offset" />
          </mxGeometry>
        </mxCell>
        <mxCell id="4JDT5SiGJjV2Vg8K56oX-25" style="edgeStyle=orthogonalEdgeStyle;rounded=0;orthogonalLoop=1;jettySize=auto;html=1;exitX=1;exitY=0.5;exitDx=0;exitDy=0;entryX=1;entryY=0.5;entryDx=0;entryDy=0;" parent="1" source="4JDT5SiGJjV2Vg8K56oX-16" target="go86CYjt80q-ZD5tMoAA-135" edge="1">
          <mxGeometry relative="1" as="geometry">
            <Array as="points">
              <mxPoint x="480" y="482" />
              <mxPoint x="480" y="220" />
            </Array>
          </mxGeometry>
        </mxCell>
        <mxCell id="4JDT5SiGJjV2Vg8K56oX-26" value="NO" style="edgeLabel;html=1;align=center;verticalAlign=middle;resizable=0;points=[];" parent="4JDT5SiGJjV2Vg8K56oX-25" vertex="1" connectable="0">
          <mxGeometry x="-0.8302" y="2" relative="1" as="geometry">
            <mxPoint y="1" as="offset" />
          </mxGeometry>
        </mxCell>
        <mxCell id="4JDT5SiGJjV2Vg8K56oX-16" value="La reparacion&amp;nbsp;&lt;div&gt;tuvo un presupuesto extra?&lt;span style=&quot;color: rgba(0, 0, 0, 0); font-family: monospace; font-size: 0px; text-align: start; text-wrap-mode: nowrap;&quot;&gt;%3CmxGraphModel%3E%3Croot%3E%3CmxCell%20id%3D%220%22%2F%3E%3CmxCell%20id%3D%221%22%20parent%3D%220%22%2F%3E%3CmxCell%20id%3D%222%22%20style%3D%22edgeStyle%3DorthogonalEdgeStyle%3Brounded%3D0%3BorthogonalLoop%3D1%3BjettySize%3Dauto%3Bhtml%3D1%3BexitX%3D0%3BexitY%3D0%3BexitDx%3D0%3BexitDy%3D0%3BentryX%3D1%3BentryY%3D0.25%3BentryDx%3D0%3BentryDy%3D0%3B%22%20edge%3D%221%22%20parent%3D%221%22%3E%3CmxGeometry%20relative%3D%221%22%20as%3D%22geometry%22%3E%3CArray%20as%3D%22points%22%3E%3CmxPoint%20x%3D%22367%22%20y%3D%22530%22%2F%3E%3CmxPoint%20x%3D%22367%22%20y%3D%22462%22%2F%3E%3C%2FArray%3E%3CmxPoint%20x%3D%22399%22%20y%3D%22571%22%20as%3D%22sourcePoint%22%2F%3E%3CmxPoint%20x%3D%22280%22%20y%3D%22582%22%20as%3D%22targetPoint%22%2F%3E%3C%2FmxGeometry%3E%3C%2FmxCell%3E%3CmxCell%20id%3D%223%22%20value%3D%22NO%22%20style%3D%22edgeLabel%3Bhtml%3D1%3Balign%3Dcenter%3BverticalAlign%3Dmiddle%3Bresizable%3D0%3Bpoints%3D%5B%5D%3B%22%20vertex%3D%221%22%20connectable%3D%220%22%20parent%3D%222%22%3E%3CmxGeometry%20x%3D%220.0102%22%20y%3D%22-4%22%20relative%3D%221%22%20as%3D%22geometry%22%3E%3CmxPoint%20as%3D%22offset%22%2F%3E%3C%2FmxGeometry%3E%3C%2FmxCell%3E%3C%2Froot%3E%3C%2FmxGraphModel%&lt;/span&gt;&lt;/div&gt;" style="rhombus;whiteSpace=wrap;html=1;" parent="1" vertex="1">
          <mxGeometry x="367" y="441.88" width="108" height="80" as="geometry" />
        </mxCell>
      </root>
    </mxGraphModel>
  </diagram>
</mxfile>
